<svg width="24" height="24" viewBox="0 0 24 24" fill="none" xmlns="http://www.w3.org/2000/svg">
<path d="M18.7136 7.22785C19.3316 7.01379 19.8628 6.60364 20.2262 6.05984C20.5895 5.51604 20.7652 4.86839 20.7265 4.2155C20.6878 3.56262 20.4368 2.94027 20.0117 2.44322C19.5866 1.94617 19.0107 1.60165 18.3718 1.46213C17.7328 1.3226 17.0657 1.39572 16.4721 1.67033C15.8785 1.94495 15.391 2.40603 15.0836 2.98335C14.7763 3.56068 14.6661 4.22263 14.7697 4.8684C14.8733 5.51417 15.1851 6.10839 15.6577 6.56057L8.83061 10.5025C8.49962 9.93843 7.99334 9.49796 7.38889 9.24818C6.78443 8.9984 6.1149 8.953 5.48226 9.11889C4.84961 9.28477 4.28851 9.65286 3.88438 10.1671C3.48026 10.6813 3.25526 11.3136 3.24364 11.9675C3.23202 12.6214 3.43442 13.2612 3.82002 13.7895C4.20562 14.3178 4.75329 14.7056 5.37965 14.8938C6.006 15.0821 6.67672 15.0605 7.28967 14.8323C7.90262 14.6042 8.42422 14.182 8.77504 13.63L15.635 17.4857C16.0974 17.0232 16.6984 16.7246 17.3463 16.6352C17.9942 16.5458 18.6535 16.6706 19.2239 16.9905C19.7944 17.3105 20.2446 17.8081 20.5061 18.4076C20.7676 19.0071 20.826 19.6756 20.6724 20.3114C20.5189 20.9471 20.1618 21.5153 19.6555 21.9293C19.1492 22.3434 18.5215 22.5806 17.8679 22.6049C17.2143 22.6293 16.5707 22.4394 16.035 22.0641C15.4993 21.6889 15.101 21.1488 14.9006 20.5262" stroke="white" stroke-width="2" stroke-linecap="round" stroke-linejoin="round"/>
</svg>
